<svg width="20" height="19" viewBox="0 0 20 19" fill="none" xmlns="http://www.w3.org/2000/svg">
<path d="M1.66667 6.0981V17.3191H16.6667V18.9221H1.66667C0.745833 18.9221 0 18.2087 0 17.3191V6.0981H1.66667ZM19.1917 4.72754L11.6667 0.199081L4.14167 4.72754C3.65833 5.00807 3.33333 5.51301 3.33333 6.0981V14.1131C3.33333 14.9947 4.08333 15.7161 5 15.7161H18.3333C19.25 15.7161 20 14.9947 20 14.1131V6.0981C20 5.51301 19.675 5.00807 19.1917 4.72754ZM18.3333 14.1131H5V7.7011L11.6667 11.7086L18.3333 7.7011V14.1131ZM11.6667 10.1056L5 6.0981L11.6667 2.09062L18.3333 6.0981L11.6667 10.1056Z" fill="#F88D31"/>
</svg>
